<svg width="512" height="512" viewBox="0 0 512 512" fill="none" xmlns="http://www.w3.org/2000/svg">
  <defs>
    <linearGradient id="bg" x1="256" y1="32" x2="256" y2="480" gradientUnits="userSpaceOnUse">
      <stop stop-color="#08152E"/>
      <stop offset="1" stop-color="#030B1A"/>
    </linearGradient>
    <linearGradient id="beam" x1="256" y1="150" x2="390" y2="135" gradientUnits="userSpaceOnUse">
      <stop stop-color="#CFF6FF" stop-opacity="0.95"/>
      <stop offset="1" stop-color="#5CCBFF" stop-opacity="0.15"/>
    </linearGradient>
    <linearGradient id="tower" x1="220" y1="170" x2="292" y2="320" gradientUnits="userSpaceOnUse">
      <stop stop-color="#8EEBFF"/>
      <stop offset="0.5" stop-color="#59BFFF"/>
      <stop offset="1" stop-color="#275DCC"/>
    </linearGradient>
    <filter id="glow" x="-50%" y="-50%" width="200%" height="200%">
      <feGaussianBlur stdDeviation="6" result="blur"/>
      <feMerge>
        <feMergeNode in="blur"/>
        <feMergeNode in="SourceGraphic"/>
      </feMerge>
    </filter>
  </defs>

  <rect width="512" height="512" rx="96" fill="url(#bg)"/>

  <path d="M92 338C144 196 365 154 420 338" stroke="#4FCBFF" stroke-opacity="0.55" stroke-width="3"/>
  <path d="M128 356C195 302 317 302 384 356" stroke="#2E8BFF" stroke-opacity="0.25" stroke-width="2"/>

  <g stroke="#63D4FF" stroke-width="2" stroke-opacity="0.55">
    <path d="M120 330L174 256L230 302L256 210L320 286L388 248L420 330"/>
    <path d="M174 256L256 210L320 286"/>
    <path d="M230 302L320 286L388 248"/>
    <path d="M174 256L230 302L142 368"/>
    <path d="M320 286L286 382L388 248"/>
  </g>

  <g fill="#D8F7FF" filter="url(#glow)">
    <circle cx="120" cy="330" r="5"/>
    <circle cx="174" cy="256" r="5"/>
    <circle cx="230" cy="302" r="5"/>
    <circle cx="256" cy="210" r="5"/>
    <circle cx="320" cy="286" r="5"/>
    <circle cx="388" cy="248" r="5"/>
    <circle cx="420" cy="330" r="5"/>
    <circle cx="142" cy="368" r="4"/>
    <circle cx="286" cy="382" r="4"/>
  </g>

  <path d="M214 320L232 176H280L298 320H214Z" fill="url(#tower)" stroke="#9BE7FF" stroke-width="2"/>
  <rect x="226" y="154" width="60" height="24" rx="6" fill="#8EEBFF" stroke="#D9FBFF" stroke-width="2"/>
  <rect x="244" y="142" width="24" height="14" rx="4" fill="#F8FEFF"/>

  <path d="M256 140L272 122L256 92L240 122L256 140Z" fill="#FFF4C2" filter="url(#glow)"/>
  <path d="M266 150L394 120L394 148L266 168Z" fill="url(#beam)"/>

  <path d="M174 358L308 286L366 304L226 382L174 358Z" fill="url(#tower)" opacity="0.95"/>
  <path d="M110 398H402" stroke="#6BD6FF" stroke-width="3" stroke-opacity="0.5"/>

  <g fill="#173B76" opacity="0.65">
    <circle cx="246" cy="194" r="4"/>
    <circle cx="246" cy="228" r="4"/>
    <circle cx="246" cy="262" r="4"/>
  </g>
</svg>
